<mxfile host="app.diagrams.net" modified="2021-02-20T10:52:37.086Z" agent="5.0 (Windows NT 10.0; Win64; x64) AppleWebKit/537.36 (KHTML, like Gecko) Chrome/88.0.4324.104 Safari/537.36" etag="4tEx5t1OXQE70axkCis-" version="14.4.2" type="github">
  <diagram id="R2lEEEUBdFMjLlhIrx00" name="Page-1">
    <mxGraphModel dx="868" dy="482" grid="1" gridSize="10" guides="1" tooltips="1" connect="1" arrows="1" fold="1" page="1" pageScale="1" pageWidth="850" pageHeight="1100" math="0" shadow="0" extFonts="Permanent Marker^https://fonts.googleapis.com/css?family=Permanent+Marker">
      <root>
        <mxCell id="0" />
        <mxCell id="1" parent="0" />
        <mxCell id="KqL0RY0R9qTbdUnv6ZP4-83" value="" style="endArrow=none;html=1;" edge="1" parent="1" source="KqL0RY0R9qTbdUnv6ZP4-89">
          <mxGeometry width="50" height="50" relative="1" as="geometry">
            <mxPoint x="870" y="440" as="sourcePoint" />
            <mxPoint x="920" y="390" as="targetPoint" />
          </mxGeometry>
        </mxCell>
        <mxCell id="KqL0RY0R9qTbdUnv6ZP4-116" value="" style="group" vertex="1" connectable="0" parent="1">
          <mxGeometry x="920" y="470" as="geometry" />
        </mxCell>
        <mxCell id="KqL0RY0R9qTbdUnv6ZP4-93" value="" style="endArrow=none;html=1;exitX=0.5;exitY=0;exitDx=0;exitDy=0;" edge="1" parent="KqL0RY0R9qTbdUnv6ZP4-116" source="KqL0RY0R9qTbdUnv6ZP4-91">
          <mxGeometry width="50" height="50" relative="1" as="geometry">
            <mxPoint x="-50" y="50" as="sourcePoint" />
            <mxPoint as="targetPoint" />
          </mxGeometry>
        </mxCell>
        <mxCell id="KqL0RY0R9qTbdUnv6ZP4-94" value="" style="endArrow=none;html=1;exitX=0.4;exitY=0.02;exitDx=0;exitDy=0;exitPerimeter=0;" edge="1" parent="KqL0RY0R9qTbdUnv6ZP4-116" source="KqL0RY0R9qTbdUnv6ZP4-90">
          <mxGeometry width="50" height="50" relative="1" as="geometry">
            <mxPoint x="-50" y="50" as="sourcePoint" />
            <mxPoint as="targetPoint" />
          </mxGeometry>
        </mxCell>
        <mxCell id="KqL0RY0R9qTbdUnv6ZP4-135" value="" style="group" vertex="1" connectable="0" parent="1">
          <mxGeometry x="740" width="585" height="340" as="geometry" />
        </mxCell>
        <mxCell id="KqL0RY0R9qTbdUnv6ZP4-101" value="N" style="text;html=1;align=center;verticalAlign=middle;resizable=0;points=[];autosize=1;" vertex="1" parent="KqL0RY0R9qTbdUnv6ZP4-135">
          <mxGeometry x="240" y="180" width="20" height="20" as="geometry" />
        </mxCell>
        <mxCell id="KqL0RY0R9qTbdUnv6ZP4-102" value="M" style="text;html=1;align=center;verticalAlign=middle;resizable=0;points=[];autosize=1;" vertex="1" parent="KqL0RY0R9qTbdUnv6ZP4-135">
          <mxGeometry x="385" y="180" width="30" height="20" as="geometry" />
        </mxCell>
        <mxCell id="KqL0RY0R9qTbdUnv6ZP4-109" value="N" style="text;html=1;align=center;verticalAlign=middle;resizable=0;points=[];autosize=1;" vertex="1" parent="KqL0RY0R9qTbdUnv6ZP4-135">
          <mxGeometry x="180" y="210" width="20" height="20" as="geometry" />
        </mxCell>
        <mxCell id="KqL0RY0R9qTbdUnv6ZP4-131" value="" style="group" vertex="1" connectable="0" parent="KqL0RY0R9qTbdUnv6ZP4-135">
          <mxGeometry width="585" height="340" as="geometry" />
        </mxCell>
        <mxCell id="KqL0RY0R9qTbdUnv6ZP4-57" value="" style="endArrow=none;html=1;exitX=0.5;exitY=0;exitDx=0;exitDy=0;entryX=0.5;entryY=1;entryDx=0;entryDy=0;" edge="1" parent="KqL0RY0R9qTbdUnv6ZP4-131" target="KqL0RY0R9qTbdUnv6ZP4-27">
          <mxGeometry width="50" height="50" relative="1" as="geometry">
            <mxPoint x="486" y="340" as="sourcePoint" />
            <mxPoint x="486" y="300" as="targetPoint" />
          </mxGeometry>
        </mxCell>
        <mxCell id="KqL0RY0R9qTbdUnv6ZP4-128" value="" style="group" vertex="1" connectable="0" parent="KqL0RY0R9qTbdUnv6ZP4-131">
          <mxGeometry width="585" height="300" as="geometry" />
        </mxCell>
        <mxCell id="KqL0RY0R9qTbdUnv6ZP4-110" value="" style="endArrow=none;html=1;exitX=0.5;exitY=0;exitDx=0;exitDy=0;" edge="1" parent="KqL0RY0R9qTbdUnv6ZP4-128" source="KqL0RY0R9qTbdUnv6ZP4-1">
          <mxGeometry width="50" height="50" relative="1" as="geometry">
            <mxPoint x="190" y="80" as="sourcePoint" />
            <mxPoint x="180" y="120" as="targetPoint" />
            <Array as="points" />
          </mxGeometry>
        </mxCell>
        <mxCell id="KqL0RY0R9qTbdUnv6ZP4-127" value="" style="group" vertex="1" connectable="0" parent="KqL0RY0R9qTbdUnv6ZP4-128">
          <mxGeometry width="585" height="300" as="geometry" />
        </mxCell>
        <mxCell id="KqL0RY0R9qTbdUnv6ZP4-17" value="" style="endArrow=none;html=1;entryX=0.5;entryY=1;entryDx=0;entryDy=0;" edge="1" parent="KqL0RY0R9qTbdUnv6ZP4-127" target="KqL0RY0R9qTbdUnv6ZP4-15">
          <mxGeometry width="50" height="50" relative="1" as="geometry">
            <mxPoint x="180" y="70" as="sourcePoint" />
            <mxPoint x="150" y="60" as="targetPoint" />
            <Array as="points" />
          </mxGeometry>
        </mxCell>
        <mxCell id="KqL0RY0R9qTbdUnv6ZP4-54" value="" style="group" vertex="1" connectable="0" parent="KqL0RY0R9qTbdUnv6ZP4-127">
          <mxGeometry width="585" height="300" as="geometry" />
        </mxCell>
        <mxCell id="KqL0RY0R9qTbdUnv6ZP4-27" value="SESSION" style="shape=rhombus;perimeter=rhombusPerimeter;whiteSpace=wrap;html=1;align=center;" vertex="1" parent="KqL0RY0R9qTbdUnv6ZP4-54">
          <mxGeometry x="425" y="230" width="120" height="60" as="geometry" />
        </mxCell>
        <mxCell id="KqL0RY0R9qTbdUnv6ZP4-31" value="" style="endArrow=none;html=1;rounded=0;entryX=0;entryY=0.5;entryDx=0;entryDy=0;exitX=1;exitY=0.5;exitDx=0;exitDy=0;" edge="1" parent="KqL0RY0R9qTbdUnv6ZP4-54" source="KqL0RY0R9qTbdUnv6ZP4-26">
          <mxGeometry relative="1" as="geometry">
            <mxPoint x="1200" y="179.5" as="sourcePoint" />
            <mxPoint x="430" y="170" as="targetPoint" />
          </mxGeometry>
        </mxCell>
        <mxCell id="KqL0RY0R9qTbdUnv6ZP4-52" value="HAS" style="shape=rhombus;perimeter=rhombusPerimeter;whiteSpace=wrap;html=1;align=center;" vertex="1" parent="KqL0RY0R9qTbdUnv6ZP4-54">
          <mxGeometry x="120" y="240" width="120" height="60" as="geometry" />
        </mxCell>
        <mxCell id="KqL0RY0R9qTbdUnv6ZP4-81" value="" style="endArrow=none;html=1;exitX=0.5;exitY=0;exitDx=0;exitDy=0;" edge="1" parent="KqL0RY0R9qTbdUnv6ZP4-54" source="KqL0RY0R9qTbdUnv6ZP4-52">
          <mxGeometry width="50" height="50" relative="1" as="geometry">
            <mxPoint x="180" y="230" as="sourcePoint" />
            <mxPoint x="180" y="190" as="targetPoint" />
            <Array as="points" />
          </mxGeometry>
        </mxCell>
        <mxCell id="KqL0RY0R9qTbdUnv6ZP4-136" value="" style="group" vertex="1" connectable="0" parent="KqL0RY0R9qTbdUnv6ZP4-54">
          <mxGeometry width="585" height="200" as="geometry" />
        </mxCell>
        <mxCell id="KqL0RY0R9qTbdUnv6ZP4-126" value="" style="group" vertex="1" connectable="0" parent="KqL0RY0R9qTbdUnv6ZP4-136">
          <mxGeometry width="585" height="200" as="geometry" />
        </mxCell>
        <mxCell id="KqL0RY0R9qTbdUnv6ZP4-70" value="" style="group" vertex="1" connectable="0" parent="KqL0RY0R9qTbdUnv6ZP4-126">
          <mxGeometry x="430" y="150" width="100" height="40" as="geometry" />
        </mxCell>
        <mxCell id="KqL0RY0R9qTbdUnv6ZP4-37" value="" style="endArrow=none;html=1;rounded=0;entryX=0.5;entryY=1;entryDx=0;entryDy=0;exitX=0.5;exitY=0;exitDx=0;exitDy=0;" edge="1" parent="KqL0RY0R9qTbdUnv6ZP4-70" target="KqL0RY0R9qTbdUnv6ZP4-40">
          <mxGeometry relative="1" as="geometry">
            <mxPoint x="50" as="sourcePoint" />
            <mxPoint x="235" y="-50" as="targetPoint" />
          </mxGeometry>
        </mxCell>
        <mxCell id="KqL0RY0R9qTbdUnv6ZP4-38" value="" style="endArrow=none;html=1;rounded=0;entryX=0.5;entryY=0;entryDx=0;entryDy=0;exitX=0.5;exitY=1;exitDx=0;exitDy=0;" edge="1" parent="KqL0RY0R9qTbdUnv6ZP4-70" source="KqL0RY0R9qTbdUnv6ZP4-39">
          <mxGeometry relative="1" as="geometry">
            <mxPoint x="80" y="-40" as="sourcePoint" />
            <mxPoint x="50" as="targetPoint" />
          </mxGeometry>
        </mxCell>
        <mxCell id="KqL0RY0R9qTbdUnv6ZP4-58" value="CLASS" style="rounded=0;whiteSpace=wrap;html=1;" vertex="1" parent="KqL0RY0R9qTbdUnv6ZP4-70">
          <mxGeometry width="100" height="40" as="geometry" />
        </mxCell>
        <mxCell id="KqL0RY0R9qTbdUnv6ZP4-125" value="" style="group" vertex="1" connectable="0" parent="KqL0RY0R9qTbdUnv6ZP4-126">
          <mxGeometry width="585" height="200" as="geometry" />
        </mxCell>
        <mxCell id="KqL0RY0R9qTbdUnv6ZP4-40" value="CLASS_NAME" style="ellipse;whiteSpace=wrap;html=1;" vertex="1" parent="KqL0RY0R9qTbdUnv6ZP4-125">
          <mxGeometry x="500" y="60" width="85" height="50" as="geometry" />
        </mxCell>
        <mxCell id="KqL0RY0R9qTbdUnv6ZP4-124" value="" style="group" vertex="1" connectable="0" parent="KqL0RY0R9qTbdUnv6ZP4-125">
          <mxGeometry width="475" height="200" as="geometry" />
        </mxCell>
        <mxCell id="KqL0RY0R9qTbdUnv6ZP4-24" value="" style="group" vertex="1" connectable="0" parent="KqL0RY0R9qTbdUnv6ZP4-124">
          <mxGeometry width="390" height="200" as="geometry" />
        </mxCell>
        <mxCell id="KqL0RY0R9qTbdUnv6ZP4-9" value="NAME" style="ellipse;whiteSpace=wrap;html=1;" vertex="1" parent="KqL0RY0R9qTbdUnv6ZP4-24">
          <mxGeometry x="140" y="70" width="80" height="50" as="geometry" />
        </mxCell>
        <mxCell id="KqL0RY0R9qTbdUnv6ZP4-11" value="F.NAME" style="ellipse;whiteSpace=wrap;html=1;" vertex="1" parent="KqL0RY0R9qTbdUnv6ZP4-24">
          <mxGeometry x="60" width="80" height="50" as="geometry" />
        </mxCell>
        <mxCell id="KqL0RY0R9qTbdUnv6ZP4-12" value="&lt;u&gt;STUDENT_ID&lt;/u&gt;" style="ellipse;whiteSpace=wrap;html=1;" vertex="1" parent="KqL0RY0R9qTbdUnv6ZP4-24">
          <mxGeometry x="20" y="100" width="80" height="50" as="geometry" />
        </mxCell>
        <mxCell id="KqL0RY0R9qTbdUnv6ZP4-14" value="L.NAME" style="ellipse;whiteSpace=wrap;html=1;" vertex="1" parent="KqL0RY0R9qTbdUnv6ZP4-24">
          <mxGeometry x="220" width="80" height="50" as="geometry" />
        </mxCell>
        <mxCell id="KqL0RY0R9qTbdUnv6ZP4-15" value="M.NAME" style="ellipse;whiteSpace=wrap;html=1;" vertex="1" parent="KqL0RY0R9qTbdUnv6ZP4-24">
          <mxGeometry x="140" width="80" height="50" as="geometry" />
        </mxCell>
        <mxCell id="KqL0RY0R9qTbdUnv6ZP4-16" value="" style="endArrow=none;html=1;exitX=0.5;exitY=0;exitDx=0;exitDy=0;" edge="1" parent="KqL0RY0R9qTbdUnv6ZP4-24" source="KqL0RY0R9qTbdUnv6ZP4-9">
          <mxGeometry width="50" height="50" relative="1" as="geometry">
            <mxPoint x="50" y="100" as="sourcePoint" />
            <mxPoint x="100" y="50" as="targetPoint" />
            <Array as="points" />
          </mxGeometry>
        </mxCell>
        <mxCell id="KqL0RY0R9qTbdUnv6ZP4-18" value="" style="endArrow=none;html=1;exitX=0.5;exitY=0;exitDx=0;exitDy=0;entryX=0.5;entryY=1;entryDx=0;entryDy=0;" edge="1" parent="KqL0RY0R9qTbdUnv6ZP4-24" source="KqL0RY0R9qTbdUnv6ZP4-9" target="KqL0RY0R9qTbdUnv6ZP4-14">
          <mxGeometry width="50" height="50" relative="1" as="geometry">
            <mxPoint x="200" y="90" as="sourcePoint" />
            <mxPoint x="120" y="70" as="targetPoint" />
            <Array as="points" />
          </mxGeometry>
        </mxCell>
        <mxCell id="KqL0RY0R9qTbdUnv6ZP4-19" value="" style="endArrow=none;html=1;exitX=0.5;exitY=0;exitDx=0;exitDy=0;" edge="1" parent="KqL0RY0R9qTbdUnv6ZP4-24">
          <mxGeometry width="50" height="50" relative="1" as="geometry">
            <mxPoint x="180" y="150" as="sourcePoint" />
            <mxPoint x="100" y="130" as="targetPoint" />
            <Array as="points">
              <mxPoint x="140" y="140" />
            </Array>
          </mxGeometry>
        </mxCell>
        <mxCell id="KqL0RY0R9qTbdUnv6ZP4-20" value="ADDRESS" style="ellipse;shape=doubleEllipse;margin=3;whiteSpace=wrap;html=1;align=center;" vertex="1" parent="KqL0RY0R9qTbdUnv6ZP4-24">
          <mxGeometry x="250" y="90" width="100" height="40" as="geometry" />
        </mxCell>
        <mxCell id="KqL0RY0R9qTbdUnv6ZP4-21" value="" style="endArrow=none;html=1;exitX=0.5;exitY=0;exitDx=0;exitDy=0;entryX=0.5;entryY=1;entryDx=0;entryDy=0;" edge="1" parent="KqL0RY0R9qTbdUnv6ZP4-24" source="KqL0RY0R9qTbdUnv6ZP4-1" target="KqL0RY0R9qTbdUnv6ZP4-20">
          <mxGeometry width="50" height="50" relative="1" as="geometry">
            <mxPoint x="220" y="110" as="sourcePoint" />
            <mxPoint x="140" y="90" as="targetPoint" />
            <Array as="points" />
          </mxGeometry>
        </mxCell>
        <mxCell id="KqL0RY0R9qTbdUnv6ZP4-22" value="D.O.B" style="ellipse;whiteSpace=wrap;html=1;" vertex="1" parent="KqL0RY0R9qTbdUnv6ZP4-24">
          <mxGeometry y="40" width="80" height="50" as="geometry" />
        </mxCell>
        <mxCell id="KqL0RY0R9qTbdUnv6ZP4-23" value="" style="endArrow=none;html=1;" edge="1" parent="KqL0RY0R9qTbdUnv6ZP4-24">
          <mxGeometry width="50" height="50" relative="1" as="geometry">
            <mxPoint x="180" y="150" as="sourcePoint" />
            <mxPoint x="80" y="70" as="targetPoint" />
            <Array as="points" />
          </mxGeometry>
        </mxCell>
        <mxCell id="KqL0RY0R9qTbdUnv6ZP4-29" value="" style="group" vertex="1" connectable="0" parent="KqL0RY0R9qTbdUnv6ZP4-24">
          <mxGeometry x="140" y="150" width="160" height="40" as="geometry" />
        </mxCell>
        <mxCell id="KqL0RY0R9qTbdUnv6ZP4-1" value="STUDENT" style="rounded=0;whiteSpace=wrap;html=1;" vertex="1" parent="KqL0RY0R9qTbdUnv6ZP4-29">
          <mxGeometry width="80" height="40" as="geometry" />
        </mxCell>
        <mxCell id="KqL0RY0R9qTbdUnv6ZP4-25" value="" style="endArrow=none;html=1;rounded=0;" edge="1" parent="KqL0RY0R9qTbdUnv6ZP4-29">
          <mxGeometry relative="1" as="geometry">
            <mxPoint x="80" y="19.5" as="sourcePoint" />
            <mxPoint x="170" y="20" as="targetPoint" />
            <Array as="points">
              <mxPoint x="160" y="19.5" />
            </Array>
          </mxGeometry>
        </mxCell>
        <mxCell id="KqL0RY0R9qTbdUnv6ZP4-26" value="ENROLLS" style="shape=rhombus;perimeter=rhombusPerimeter;whiteSpace=wrap;html=1;align=center;" vertex="1" parent="KqL0RY0R9qTbdUnv6ZP4-24">
          <mxGeometry x="270" y="140" width="120" height="60" as="geometry" />
        </mxCell>
        <mxCell id="KqL0RY0R9qTbdUnv6ZP4-39" value="&lt;u&gt;CLASS_ID&lt;/u&gt;" style="ellipse;whiteSpace=wrap;html=1;" vertex="1" parent="KqL0RY0R9qTbdUnv6ZP4-124">
          <mxGeometry x="390" y="60" width="85" height="50" as="geometry" />
        </mxCell>
        <mxCell id="KqL0RY0R9qTbdUnv6ZP4-60" value="" style="endArrow=none;html=1;exitX=0.5;exitY=0;exitDx=0;exitDy=0;" edge="1" parent="KqL0RY0R9qTbdUnv6ZP4-136" source="KqL0RY0R9qTbdUnv6ZP4-27">
          <mxGeometry width="50" height="50" relative="1" as="geometry">
            <mxPoint x="492" y="240" as="sourcePoint" />
            <mxPoint x="485" y="190" as="targetPoint" />
          </mxGeometry>
        </mxCell>
        <mxCell id="KqL0RY0R9qTbdUnv6ZP4-145" value="" style="group" vertex="1" connectable="0" parent="1">
          <mxGeometry x="720" y="300" width="625" height="240" as="geometry" />
        </mxCell>
        <mxCell id="KqL0RY0R9qTbdUnv6ZP4-142" value="" style="group" vertex="1" connectable="0" parent="KqL0RY0R9qTbdUnv6ZP4-145">
          <mxGeometry width="625" height="240" as="geometry" />
        </mxCell>
        <mxCell id="KqL0RY0R9qTbdUnv6ZP4-120" value="" style="group" vertex="1" connectable="0" parent="KqL0RY0R9qTbdUnv6ZP4-142">
          <mxGeometry x="430" y="80" width="195" height="80" as="geometry" />
        </mxCell>
        <mxCell id="KqL0RY0R9qTbdUnv6ZP4-64" value="" style="endArrow=none;html=1;exitX=0.612;exitY=-0.04;exitDx=0;exitDy=0;exitPerimeter=0;" edge="1" parent="KqL0RY0R9qTbdUnv6ZP4-120" source="KqL0RY0R9qTbdUnv6ZP4-62">
          <mxGeometry width="50" height="50" relative="1" as="geometry">
            <mxPoint x="50" y="40" as="sourcePoint" />
            <mxPoint x="90" as="targetPoint" />
          </mxGeometry>
        </mxCell>
        <mxCell id="KqL0RY0R9qTbdUnv6ZP4-65" value="" style="endArrow=none;html=1;exitX=0.5;exitY=0;exitDx=0;exitDy=0;" edge="1" parent="KqL0RY0R9qTbdUnv6ZP4-120" source="KqL0RY0R9qTbdUnv6ZP4-63">
          <mxGeometry width="50" height="50" relative="1" as="geometry">
            <mxPoint x="60" y="50" as="sourcePoint" />
            <mxPoint x="90" as="targetPoint" />
          </mxGeometry>
        </mxCell>
        <mxCell id="KqL0RY0R9qTbdUnv6ZP4-141" value="" style="group" vertex="1" connectable="0" parent="KqL0RY0R9qTbdUnv6ZP4-120">
          <mxGeometry y="30" width="195" height="50" as="geometry" />
        </mxCell>
        <mxCell id="KqL0RY0R9qTbdUnv6ZP4-62" value="UNIT_NAME" style="ellipse;whiteSpace=wrap;html=1;" vertex="1" parent="KqL0RY0R9qTbdUnv6ZP4-141">
          <mxGeometry width="85" height="50" as="geometry" />
        </mxCell>
        <mxCell id="KqL0RY0R9qTbdUnv6ZP4-63" value="&lt;u&gt;UNIT_ID&lt;/u&gt;" style="ellipse;whiteSpace=wrap;html=1;" vertex="1" parent="KqL0RY0R9qTbdUnv6ZP4-141">
          <mxGeometry x="110" width="85" height="50" as="geometry" />
        </mxCell>
        <mxCell id="KqL0RY0R9qTbdUnv6ZP4-140" value="" style="group" vertex="1" connectable="0" parent="KqL0RY0R9qTbdUnv6ZP4-142">
          <mxGeometry width="570" height="240" as="geometry" />
        </mxCell>
        <mxCell id="KqL0RY0R9qTbdUnv6ZP4-117" value="" style="group" vertex="1" connectable="0" parent="KqL0RY0R9qTbdUnv6ZP4-140">
          <mxGeometry y="120" width="420" height="120" as="geometry" />
        </mxCell>
        <mxCell id="KqL0RY0R9qTbdUnv6ZP4-95" value="" style="endArrow=none;html=1;entryX=0.5;entryY=1;entryDx=0;entryDy=0;" edge="1" parent="KqL0RY0R9qTbdUnv6ZP4-117" target="KqL0RY0R9qTbdUnv6ZP4-89">
          <mxGeometry width="50" height="50" relative="1" as="geometry">
            <mxPoint x="320" y="50" as="sourcePoint" />
            <mxPoint x="390" y="30" as="targetPoint" />
          </mxGeometry>
        </mxCell>
        <mxCell id="KqL0RY0R9qTbdUnv6ZP4-115" value="" style="group" vertex="1" connectable="0" parent="KqL0RY0R9qTbdUnv6ZP4-117">
          <mxGeometry width="420" height="120" as="geometry" />
        </mxCell>
        <mxCell id="KqL0RY0R9qTbdUnv6ZP4-82" value="" style="endArrow=none;html=1;exitX=0.5;exitY=0;exitDx=0;exitDy=0;" edge="1" parent="KqL0RY0R9qTbdUnv6ZP4-115" source="KqL0RY0R9qTbdUnv6ZP4-88">
          <mxGeometry width="50" height="50" relative="1" as="geometry">
            <mxPoint x="150" y="100" as="sourcePoint" />
            <mxPoint x="200" y="50" as="targetPoint" />
          </mxGeometry>
        </mxCell>
        <mxCell id="KqL0RY0R9qTbdUnv6ZP4-88" value="F.NAME" style="ellipse;whiteSpace=wrap;html=1;" vertex="1" parent="KqL0RY0R9qTbdUnv6ZP4-115">
          <mxGeometry x="80" y="70" width="85" height="50" as="geometry" />
        </mxCell>
        <mxCell id="KqL0RY0R9qTbdUnv6ZP4-89" value="NAME" style="ellipse;whiteSpace=wrap;html=1;" vertex="1" parent="KqL0RY0R9qTbdUnv6ZP4-115">
          <mxGeometry x="155" width="85" height="50" as="geometry" />
        </mxCell>
        <mxCell id="KqL0RY0R9qTbdUnv6ZP4-90" value="M.NAME" style="ellipse;whiteSpace=wrap;html=1;" vertex="1" parent="KqL0RY0R9qTbdUnv6ZP4-115">
          <mxGeometry x="165" y="70" width="85" height="50" as="geometry" />
        </mxCell>
        <mxCell id="KqL0RY0R9qTbdUnv6ZP4-91" value="L.NAME" style="ellipse;whiteSpace=wrap;html=1;" vertex="1" parent="KqL0RY0R9qTbdUnv6ZP4-115">
          <mxGeometry x="250" y="70" width="85" height="50" as="geometry" />
        </mxCell>
        <mxCell id="KqL0RY0R9qTbdUnv6ZP4-98" value="ADDRESS" style="ellipse;shape=doubleEllipse;margin=3;whiteSpace=wrap;html=1;align=center;" vertex="1" parent="KqL0RY0R9qTbdUnv6ZP4-115">
          <mxGeometry x="320" y="30" width="100" height="40" as="geometry" />
        </mxCell>
        <mxCell id="KqL0RY0R9qTbdUnv6ZP4-99" value="&lt;u&gt;TEACHER_ID&lt;/u&gt;" style="ellipse;whiteSpace=wrap;html=1;align=center;" vertex="1" parent="KqL0RY0R9qTbdUnv6ZP4-115">
          <mxGeometry y="30" width="100" height="40" as="geometry" />
        </mxCell>
        <mxCell id="KqL0RY0R9qTbdUnv6ZP4-100" value="" style="endArrow=none;html=1;exitX=0.5;exitY=0;exitDx=0;exitDy=0;entryX=0.5;entryY=1;entryDx=0;entryDy=0;" edge="1" parent="KqL0RY0R9qTbdUnv6ZP4-115" target="KqL0RY0R9qTbdUnv6ZP4-89">
          <mxGeometry width="50" height="50" relative="1" as="geometry">
            <mxPoint x="100" y="50" as="sourcePoint" />
            <mxPoint x="177.5" y="30" as="targetPoint" />
          </mxGeometry>
        </mxCell>
        <mxCell id="KqL0RY0R9qTbdUnv6ZP4-137" value="" style="group" vertex="1" connectable="0" parent="KqL0RY0R9qTbdUnv6ZP4-140">
          <mxGeometry x="195" width="375" height="90" as="geometry" />
        </mxCell>
        <mxCell id="KqL0RY0R9qTbdUnv6ZP4-105" value="M" style="text;html=1;align=center;verticalAlign=middle;resizable=0;points=[];autosize=1;" vertex="1" parent="KqL0RY0R9qTbdUnv6ZP4-137">
          <mxGeometry x="310" width="30" height="20" as="geometry" />
        </mxCell>
        <mxCell id="KqL0RY0R9qTbdUnv6ZP4-106" value="M" style="text;html=1;align=center;verticalAlign=middle;resizable=0;points=[];autosize=1;" vertex="1" parent="KqL0RY0R9qTbdUnv6ZP4-137">
          <mxGeometry x="230" y="60" width="30" height="20" as="geometry" />
        </mxCell>
        <mxCell id="KqL0RY0R9qTbdUnv6ZP4-107" value="I" style="text;html=1;align=center;verticalAlign=middle;resizable=0;points=[];autosize=1;" vertex="1" parent="KqL0RY0R9qTbdUnv6ZP4-137">
          <mxGeometry x="75" y="60" width="20" height="20" as="geometry" />
        </mxCell>
        <mxCell id="KqL0RY0R9qTbdUnv6ZP4-108" value="M" style="text;html=1;align=center;verticalAlign=middle;resizable=0;points=[];autosize=1;" vertex="1" parent="KqL0RY0R9qTbdUnv6ZP4-137">
          <mxGeometry y="10" width="30" height="20" as="geometry" />
        </mxCell>
        <mxCell id="KqL0RY0R9qTbdUnv6ZP4-77" value="" style="group" vertex="1" connectable="0" parent="KqL0RY0R9qTbdUnv6ZP4-137">
          <mxGeometry x="-55" y="40" width="100" height="40" as="geometry" />
        </mxCell>
        <mxCell id="KqL0RY0R9qTbdUnv6ZP4-80" value="TEACHER" style="rounded=0;whiteSpace=wrap;html=1;" vertex="1" parent="KqL0RY0R9qTbdUnv6ZP4-77">
          <mxGeometry x="10" y="10" width="100" height="40" as="geometry" />
        </mxCell>
        <mxCell id="KqL0RY0R9qTbdUnv6ZP4-123" value="" style="group" vertex="1" connectable="0" parent="KqL0RY0R9qTbdUnv6ZP4-137">
          <mxGeometry x="115" y="30" width="260" height="60" as="geometry" />
        </mxCell>
        <mxCell id="KqL0RY0R9qTbdUnv6ZP4-50" value="TEACHES" style="shape=rhombus;perimeter=rhombusPerimeter;whiteSpace=wrap;html=1;align=center;" vertex="1" parent="KqL0RY0R9qTbdUnv6ZP4-123">
          <mxGeometry width="120" height="60" as="geometry" />
        </mxCell>
        <mxCell id="KqL0RY0R9qTbdUnv6ZP4-56" value="UNITS" style="rounded=0;whiteSpace=wrap;html=1;" vertex="1" parent="KqL0RY0R9qTbdUnv6ZP4-123">
          <mxGeometry x="160" y="10" width="100" height="40" as="geometry" />
        </mxCell>
        <mxCell id="KqL0RY0R9qTbdUnv6ZP4-76" value="" style="endArrow=none;html=1;exitX=1;exitY=0.5;exitDx=0;exitDy=0;entryX=0;entryY=0.5;entryDx=0;entryDy=0;" edge="1" parent="KqL0RY0R9qTbdUnv6ZP4-123" source="KqL0RY0R9qTbdUnv6ZP4-50" target="KqL0RY0R9qTbdUnv6ZP4-56">
          <mxGeometry width="50" height="50" relative="1" as="geometry">
            <mxPoint x="1090" y="280" as="sourcePoint" />
            <mxPoint x="1140" y="230" as="targetPoint" />
          </mxGeometry>
        </mxCell>
        <mxCell id="KqL0RY0R9qTbdUnv6ZP4-78" value="" style="endArrow=none;html=1;rounded=0;entryX=0;entryY=0.5;entryDx=0;entryDy=0;exitX=1;exitY=0.25;exitDx=0;exitDy=0;" edge="1" parent="KqL0RY0R9qTbdUnv6ZP4-137" source="KqL0RY0R9qTbdUnv6ZP4-80" target="KqL0RY0R9qTbdUnv6ZP4-50">
          <mxGeometry relative="1" as="geometry">
            <mxPoint x="-5" y="40" as="sourcePoint" />
            <mxPoint x="180" y="-10" as="targetPoint" />
          </mxGeometry>
        </mxCell>
        <mxCell id="KqL0RY0R9qTbdUnv6ZP4-79" value="" style="endArrow=none;html=1;rounded=0;entryX=0.5;entryY=0;entryDx=0;entryDy=0;exitX=0.5;exitY=1;exitDx=0;exitDy=0;" edge="1" parent="1" source="KqL0RY0R9qTbdUnv6ZP4-52" target="KqL0RY0R9qTbdUnv6ZP4-80">
          <mxGeometry relative="1" as="geometry">
            <mxPoint x="220" as="sourcePoint" />
            <mxPoint x="190" y="40" as="targetPoint" />
          </mxGeometry>
        </mxCell>
      </root>
    </mxGraphModel>
  </diagram>
</mxfile>
